<svg width="292" height="94" viewBox="0 0 292 94" fill="none" xmlns="http://www.w3.org/2000/svg">
<g filter="url(#filter0_d_36_182)">
<path d="M211.673 69.1515C211.673 80.2809 217.941 83.5 225.673 83.5C233.405 83.5 239.673 80.2809 239.673 69.1515C239.673 58.0221 233.405 49 225.673 49C217.941 49 211.673 58.0221 211.673 69.1515Z" fill="#D9D9D9"/>
<path d="M225.673 50C222.226 50 219.001 52.0097 216.595 55.4727C214.191 58.932 212.673 63.7651 212.673 69.1514C212.673 74.5291 214.182 77.7956 216.429 79.7432C218.703 81.7148 221.921 82.5 225.673 82.5C229.425 82.5 232.642 81.7148 234.917 79.7432C237.164 77.7956 238.673 74.5291 238.673 69.1514C238.673 63.7651 237.154 58.932 234.751 55.4727C232.345 52.0097 229.119 50 225.673 50Z" stroke="black" stroke-width="2"/>
</g>
<g filter="url(#filter1_d_36_182)">
<path d="M140.673 71.1515C140.673 82.2809 146.941 85.5 154.673 85.5C162.405 85.5 168.673 82.2809 168.673 71.1515C168.673 60.0221 162.405 51 154.673 51C146.941 51 140.673 60.0221 140.673 71.1515Z" fill="#D9D9D9"/>
<path d="M154.673 52C151.226 52 148.001 54.0097 145.595 57.4727C143.191 60.932 141.673 65.7651 141.673 71.1514C141.673 76.5291 143.182 79.7956 145.429 81.7432C147.703 83.7148 150.921 84.5 154.673 84.5C158.425 84.5 161.642 83.7148 163.917 81.7432C166.164 79.7956 167.673 76.5291 167.673 71.1514C167.673 65.7651 166.154 60.932 163.751 57.4727C161.345 54.0097 158.119 52 154.673 52Z" stroke="black" stroke-width="2"/>
</g>
<g filter="url(#filter2_d_36_182)">
<path d="M82.6729 71.1515C82.6729 82.2809 88.9409 85.5 96.6729 85.5C104.405 85.5 110.673 82.2809 110.673 71.1515C110.673 60.0221 104.405 51 96.6729 51C88.9409 51 82.6729 60.0221 82.6729 71.1515Z" fill="#D9D9D9"/>
<path d="M96.6729 52C93.2262 52 90.0006 54.0097 87.5947 57.4727C85.1914 60.932 83.6729 65.7651 83.6729 71.1514C83.6729 76.5291 85.1818 79.7956 87.4287 81.7432C89.7034 83.7148 92.9209 84.5 96.6729 84.5C100.425 84.5 103.642 83.7148 105.917 81.7432C108.164 79.7956 109.673 76.5291 109.673 71.1514C109.673 65.7651 108.154 60.932 105.751 57.4727C103.345 54.0097 100.119 52 96.6729 52Z" stroke="black" stroke-width="2"/>
</g>
<g filter="url(#filter3_d_36_182)">
<path d="M14.6729 62.7097C14.6729 80.7748 24.9703 86 37.6729 86C50.3754 86 60.6729 80.7748 60.6729 62.7097C60.6729 44.6446 50.3754 30 37.6729 30C24.9703 30 14.6729 44.6446 14.6729 62.7097Z" fill="#D9D9D9"/>
<path d="M37.6729 31C31.7355 31 26.2597 34.421 22.2275 40.1553C18.1974 45.8868 15.6729 53.8584 15.6729 62.71C15.6729 71.5517 18.1862 77.053 22.0596 80.3701C25.9632 83.7131 31.4333 85 37.6729 85C43.9124 85 49.3825 83.7131 53.2861 80.3701C57.1595 77.053 59.6728 71.5517 59.6729 62.71C59.6729 53.8584 57.1484 45.8868 53.1182 40.1553C49.086 34.421 43.6102 31 37.6729 31Z" stroke="black" stroke-width="2"/>
</g>
<g filter="url(#filter4_d_36_182)">
<path d="M219.673 62C213.117 62 217.103 52.2496 213.073 47.7C209.634 43.818 197.673 45.5942 197.673 40C197.673 27.8497 207.523 18 219.673 18C231.823 18 241.673 27.8497 241.673 40C241.673 52.1503 231.823 62 219.673 62Z" fill="#D9D9D9"/>
<path d="M215.273 32.3C213.45 32.3 211.973 30.8226 211.973 29C211.973 27.1774 213.45 25.7 215.273 25.7C217.095 25.7 218.573 27.1774 218.573 29C218.573 30.8226 217.095 32.3 215.273 32.3Z" fill="#D9D9D9"/>
<path d="M228.473 36.7C226.65 36.7 225.173 35.2226 225.173 33.4C225.173 31.5774 226.65 30.1 228.473 30.1C230.295 30.1 231.773 31.5774 231.773 33.4C231.773 35.2226 230.295 36.7 228.473 36.7Z" fill="#D9D9D9"/>
<path d="M227.373 51C225.55 51 224.073 49.5226 224.073 47.7C224.073 45.8774 225.55 44.4 227.373 44.4C229.195 44.4 230.673 45.8774 230.673 47.7C230.673 49.5226 229.195 51 227.373 51Z" fill="#D9D9D9"/>
<path d="M219.673 62C213.117 62 217.103 52.2496 213.073 47.7C209.634 43.818 197.673 45.5942 197.673 40C197.673 27.8497 207.523 18 219.673 18C231.823 18 241.673 27.8497 241.673 40C241.673 52.1503 231.823 62 219.673 62Z" stroke="#333333" stroke-width="2" stroke-linejoin="round"/>
<path d="M215.273 32.3C213.45 32.3 211.973 30.8226 211.973 29C211.973 27.1774 213.45 25.7 215.273 25.7C217.095 25.7 218.573 27.1774 218.573 29C218.573 30.8226 217.095 32.3 215.273 32.3Z" stroke="#333333" stroke-width="2" stroke-linejoin="round"/>
<path d="M228.473 36.7C226.65 36.7 225.173 35.2226 225.173 33.4C225.173 31.5774 226.65 30.1 228.473 30.1C230.295 30.1 231.773 31.5774 231.773 33.4C231.773 35.2226 230.295 36.7 228.473 36.7Z" stroke="#333333" stroke-width="2" stroke-linejoin="round"/>
<path d="M227.373 51C225.55 51 224.073 49.5226 224.073 47.7C224.073 45.8774 225.55 44.4 227.373 44.4C229.195 44.4 230.673 45.8774 230.673 47.7C230.673 49.5226 229.195 51 227.373 51Z" stroke="#333333" stroke-width="2" stroke-linejoin="round"/>
</g>
<g filter="url(#filter5_d_36_182)">
<mask id="mask0_36_182" style="mask-type:luminance" maskUnits="userSpaceOnUse" x="186" y="42" width="32" height="31">
<path d="M217.656 64.4204L209.093 42L186.673 50.5631L195.236 72.9835L217.656 64.4204Z" fill="white"/>
</mask>
<g mask="url(#mask0_36_182)">
<path d="M210.42 58.085L208.111 63.2489" stroke="#333333" stroke-width="2" stroke-linecap="round" stroke-linejoin="round"/>
<path d="M195.574 51.445L213.647 59.5286L211.338 64.6923L193.265 56.6089L190.546 52.2948L195.574 51.445Z" stroke="#333333" stroke-width="2" stroke-linecap="round" stroke-linejoin="round"/>
<path d="M210.42 58.085L208.111 63.2489" stroke="#333333" stroke-width="2" stroke-linecap="round" stroke-linejoin="round"/>
<path d="M195.752 51.9121L193.732 56.4305" stroke="#333333" stroke-width="2" stroke-linecap="round" stroke-linejoin="round"/>
<path d="M195.065 54.3156L209.266 60.6669" stroke="#333333" stroke-width="2" stroke-linecap="round" stroke-linejoin="round"/>
</g>
</g>
<g filter="url(#filter6_d_36_182)">
<ellipse cx="154.173" cy="39.5" rx="4.5" ry="3.5" fill="#D9D9D9"/>
<path d="M154.173 36.5C156.506 36.5 158.173 37.9528 158.173 39.5C158.173 41.0472 156.506 42.5 154.173 42.5C151.839 42.5 150.173 41.0472 150.173 39.5C150.173 37.9528 151.839 36.5 154.173 36.5Z" stroke="black"/>
</g>
<g filter="url(#filter7_d_36_182)">
<path d="M78.6728 32L114.673 32C115.777 32 116.673 32.6716 116.673 33.5V54.5C116.673 55.3284 115.777 56 114.673 56L78.6728 56C77.5682 56 76.6729 55.3284 76.6729 54.5V33.5C76.6729 32.6716 77.5682 32 78.6728 32Z" fill="#D9D9D9"/>
<path d="M108.673 41H106.673Z" fill="#D9D9D9"/>
<path d="M99.6729 41H97.6728Z" fill="#D9D9D9"/>
<path d="M91.6728 41H84.6728Z" fill="#D9D9D9"/>
<path d="M108.673 47.75L84.6728 47.75Z" fill="#D9D9D9"/>
<path d="M108.673 41H106.673M99.6729 41H97.6728M91.6728 41H84.6728M108.673 47.75L84.6728 47.75M78.6728 32L114.673 32C115.777 32 116.673 32.6716 116.673 33.5V54.5C116.673 55.3284 115.777 56 114.673 56L78.6728 56C77.5682 56 76.6729 55.3284 76.6729 54.5V33.5C76.6729 32.6716 77.5682 32 78.6728 32Z" stroke="#333333" stroke-width="2" stroke-linecap="round" stroke-linejoin="round"/>
</g>
<g filter="url(#filter8_d_36_182)">
<path d="M148.957 60C145.606 58.962 142.623 57.035 140.261 54.4816C141.142 53.3952 141.673 51.9914 141.673 50.4586C141.673 47.0112 138.987 44.2165 135.673 44.2165C135.472 44.2165 135.274 44.2268 135.079 44.2467C134.813 42.8927 134.673 41.4909 134.673 40.055C134.673 37.88 134.994 35.783 135.589 33.8122C135.617 33.8126 135.645 33.8128 135.673 33.8128C138.987 33.8128 141.673 31.0181 141.673 27.5707C141.673 26.581 141.451 25.6452 141.057 24.8137C143.37 22.5763 146.193 20.9019 149.325 20C150.317 22.0236 152.34 23.4093 154.673 23.4093C157.006 23.4093 159.028 22.0236 160.021 20C163.152 20.9019 165.975 22.5763 168.288 24.8137C167.894 25.6452 167.673 26.581 167.673 27.5707C167.673 31.0181 170.359 33.8128 173.673 33.8128C173.701 33.8128 173.729 33.8126 173.757 33.8122C174.352 35.783 174.673 37.88 174.673 40.055C174.673 41.4909 174.533 42.8927 174.267 44.2467C174.071 44.2268 173.873 44.2165 173.673 44.2165C170.359 44.2165 167.673 47.0112 167.673 50.4586C167.673 51.9914 168.204 53.3952 169.085 54.4816C166.723 57.035 163.74 58.962 160.389 60C159.616 57.4831 157.349 55.6604 154.673 55.6604C151.997 55.6604 149.73 57.4831 148.957 60Z" fill="#D9D9D9"/>
<path d="M154.673 47.3374C158.539 47.3374 161.673 44.0769 161.673 40.0549C161.673 36.0329 158.539 32.7724 154.673 32.7724C150.807 32.7724 147.673 36.0329 147.673 40.0549C147.673 44.0769 150.807 47.3374 154.673 47.3374Z" fill="#D9D9D9"/>
<path d="M148.957 60C145.606 58.962 142.623 57.035 140.261 54.4816C141.142 53.3952 141.673 51.9914 141.673 50.4586C141.673 47.0112 138.987 44.2165 135.673 44.2165C135.472 44.2165 135.274 44.2268 135.079 44.2467C134.813 42.8927 134.673 41.4909 134.673 40.055C134.673 37.88 134.994 35.783 135.589 33.8122C135.617 33.8126 135.645 33.8128 135.673 33.8128C138.987 33.8128 141.673 31.0181 141.673 27.5707C141.673 26.581 141.451 25.6452 141.057 24.8137C143.37 22.5763 146.193 20.9019 149.325 20C150.317 22.0236 152.34 23.4093 154.673 23.4093C157.006 23.4093 159.028 22.0236 160.021 20C163.152 20.9019 165.975 22.5763 168.288 24.8137C167.894 25.6452 167.673 26.581 167.673 27.5707C167.673 31.0181 170.359 33.8128 173.673 33.8128C173.701 33.8128 173.729 33.8126 173.757 33.8122C174.352 35.783 174.673 37.88 174.673 40.055C174.673 41.4909 174.533 42.8927 174.267 44.2467C174.071 44.2268 173.873 44.2165 173.673 44.2165C170.359 44.2165 167.673 47.0112 167.673 50.4586C167.673 51.9914 168.204 53.3952 169.085 54.4816C166.723 57.035 163.74 58.962 160.389 60C159.616 57.4831 157.349 55.6604 154.673 55.6604C151.997 55.6604 149.73 57.4831 148.957 60Z" stroke="#333333" stroke-width="2" stroke-linejoin="round"/>
<path d="M154.673 47.3374C158.539 47.3374 161.673 44.0769 161.673 40.0549C161.673 36.0329 158.539 32.7724 154.673 32.7724C150.807 32.7724 147.673 36.0329 147.673 40.0549C147.673 44.0769 150.807 47.3374 154.673 47.3374Z" stroke="#333333" stroke-width="2" stroke-linejoin="round"/>
</g>
<g filter="url(#filter9_d_36_182)">
<path d="M49.0479 1H26.2979C25.4004 1 24.6729 1.96259 24.6729 3.15V41.85C24.6729 43.0374 25.4004 44 26.2979 44H49.0479C49.9453 44 50.6729 43.0374 50.6729 41.85V3.15C50.6729 1.96259 49.9453 1 49.0479 1Z" fill="#D9D9D9"/>
<path d="M31.1729 28.95H42.5479Z" fill="#D9D9D9"/>
<path d="M31.1729 35.4H36.8604Z" fill="#D9D9D9"/>
<path d="M42.5479 9.6H31.1729V20.35H42.5479V9.6Z" fill="#D9D9D9"/>
<path d="M31.1729 28.95H42.5479M31.1729 35.4H36.8604M49.0479 1H26.2979C25.4004 1 24.6729 1.96259 24.6729 3.15V41.85C24.6729 43.0374 25.4004 44 26.2979 44H49.0479C49.9453 44 50.6729 43.0374 50.6729 41.85V3.15C50.6729 1.96259 49.9453 1 49.0479 1ZM31.1729 9.6H42.5479V20.35H31.1729V9.6Z" stroke="#333333" stroke-width="2" stroke-linecap="round" stroke-linejoin="round"/>
</g>
<g filter="url(#filter10_d_36_182)">
<path d="M19.4572 47.6794L20.8997 46.2939Z" fill="#D9D9D9"/>
<path d="M20.6575 58.3123C24.0431 55.0604 24.1515 49.6796 20.8997 46.2939C17.6478 42.9083 12.2669 42.7999 8.88128 46.0518C5.49564 49.3037 5.38721 54.6845 8.63911 58.0701C11.891 61.4558 17.2718 61.5642 20.6575 58.3123Z" fill="#D9D9D9"/>
<path d="M5.0001 45.6199L8.60614 42.1563Z" fill="#D9D9D9"/>
<path d="M13.327 53.5675L12.3449 49.6578L16.2118 50.7966L17.1939 54.7063L13.327 53.5675Z" fill="#D9D9D9"/>
<path d="M8.63911 58.0701L10.0815 56.6847Z" fill="#D9D9D9"/>
<path d="M8.88128 46.0518L10.2667 47.4942Z" fill="#D9D9D9"/>
<path d="M19.2721 56.8699L20.6575 58.3123Z" fill="#D9D9D9"/>
<path d="M17.8678 60.0996C18.8771 59.7051 19.8273 59.1097 20.6575 58.3123C21.4877 57.5149 22.1208 56.5895 22.5557 55.5969" fill="#D9D9D9"/>
<path d="M6.85184 55.2805C7.24635 56.2898 7.84172 57.24 8.63911 58.0701C9.4365 58.9003 10.3619 59.5335 11.3545 59.9683" fill="#D9D9D9"/>
<path d="M18.1842 44.3958C19.1768 44.8306 20.1023 45.4637 20.8997 46.2939C21.697 47.1241 22.2924 48.0743 22.6869 49.0837" fill="#D9D9D9"/>
<path d="M6.8794 49.0145C7.31471 47.9283 7.98251 46.915 8.88128 46.0518C9.78005 45.1885 10.8195 44.562 11.9223 44.1708" fill="#D9D9D9"/>
<path d="M18.7645 46.9582C18.3662 47.3407 18.3534 47.9738 18.736 48.3721C19.1186 48.7704 19.7516 48.7832 20.15 48.4006L19.4572 47.6794L18.7645 46.9582ZM4.30738 44.8987C3.90907 45.2813 3.89632 45.9143 4.27889 46.3127C4.66147 46.711 5.29451 46.7237 5.69282 46.3411L5.0001 45.6199L4.30738 44.8987ZM9.29886 42.8776C9.69717 42.495 9.70993 41.8619 9.32735 41.4636C8.94477 41.0653 8.31174 41.0526 7.91343 41.4351L8.60614 42.1563L9.29886 42.8776ZM13.327 53.5675L12.3571 53.8111C12.4434 54.1545 12.7048 54.4267 13.0445 54.5267L13.327 53.5675ZM12.3449 49.6578L12.6274 48.6985C12.2831 48.5972 11.911 48.688 11.6521 48.9366C11.3933 49.1852 11.2876 49.5534 11.375 49.9014L12.3449 49.6578ZM16.2118 50.7966L17.1817 50.553C17.0954 50.2096 16.834 49.9374 16.4943 49.8373L16.2118 50.7966ZM17.1939 54.7063L16.9114 55.6655C17.2556 55.7669 17.6278 55.6761 17.8866 55.4275C18.1454 55.1789 18.2512 54.8107 18.1638 54.4626L17.1939 54.7063ZM10.7742 57.4059C11.1726 57.0233 11.1853 56.3903 10.8027 55.992C10.4202 55.5937 9.78712 55.5809 9.38881 55.9635L10.0815 56.6847L10.7742 57.4059ZM9.54551 48.1869C9.92808 48.5852 10.5611 48.598 10.9594 48.2154C11.3577 47.8328 11.3705 47.1998 10.9879 46.8015L10.2667 47.4942L9.54551 48.1869ZM19.9933 56.1772C19.6107 55.7789 18.9776 55.7661 18.5793 56.1487C18.181 56.5313 18.1683 57.1643 18.5508 57.5626L19.2721 56.8699L19.9933 56.1772ZM17.5038 59.1682C16.9894 59.3693 16.7354 59.9492 16.9364 60.4636C17.1375 60.978 17.7175 61.232 18.2319 61.031L17.8678 60.0996L17.5038 59.1682ZM23.4716 55.9982C23.6933 55.4923 23.4628 54.9026 22.957 54.6809C22.4511 54.4593 21.8613 54.6898 21.6397 55.1956L22.5557 55.5969L23.4716 55.9982ZM7.78322 54.9164C7.58216 54.402 7.00217 54.148 6.48779 54.3491C5.9734 54.5502 5.7194 55.1301 5.92046 55.6445L6.85184 55.2805L7.78322 54.9164ZM10.9532 60.8843C11.4591 61.1059 12.0488 60.8755 12.2705 60.3696C12.4921 59.8637 12.2617 59.274 11.7558 59.0524L11.3545 59.9683L10.9532 60.8843ZM18.5854 43.4798C18.0796 43.2582 17.4898 43.4887 17.2682 43.9945C17.0466 44.5004 17.277 45.0902 17.7829 45.3118L18.1842 44.3958L18.5854 43.4798ZM21.7555 49.4477C21.9565 49.9621 22.5365 50.2161 23.0509 50.015C23.5653 49.814 23.8193 49.234 23.6182 48.7196L22.6869 49.0837L21.7555 49.4477ZM5.95117 48.6425C5.74571 49.1551 5.99474 49.7373 6.50739 49.9427C7.02003 50.1482 7.60217 49.8991 7.80763 49.3865L6.8794 49.0145L5.95117 48.6425ZM12.2566 45.1133C12.7771 44.9286 13.0494 44.357 12.8648 43.8365C12.6801 43.316 12.1085 43.0437 11.588 43.2283L11.9223 44.1708L12.2566 45.1133ZM19.4572 47.6794L20.15 48.4006L21.5924 47.0151L20.8997 46.2939L20.2069 45.5727L18.7645 46.9582L19.4572 47.6794ZM20.6575 58.3123L21.3502 59.0335C25.1342 55.399 25.2553 49.3852 21.6209 45.6012L20.8997 46.2939L20.1784 46.9866C23.0478 49.974 22.9521 54.7218 19.9648 57.5911L20.6575 58.3123ZM20.8997 46.2939L21.6209 45.6012C17.9864 41.8173 11.9725 41.6961 8.18856 45.3306L8.88128 46.0518L9.574 46.773C12.5613 43.9037 17.3091 43.9993 20.1784 46.9866L20.8997 46.2939ZM8.88128 46.0518L8.18856 45.3306C4.40461 48.965 4.28343 54.9789 7.9179 58.7629L8.63911 58.0701L9.36032 57.3774C6.491 54.3901 6.58667 49.6423 9.574 46.773L8.88128 46.0518ZM8.63911 58.0701L7.9179 58.7629C11.5524 62.5468 17.5663 62.668 21.3502 59.0335L20.6575 58.3123L19.9648 57.5911C16.9774 60.4604 12.2296 60.3648 9.36032 57.3774L8.63911 58.0701ZM5.0001 45.6199L5.69282 46.3411L9.29886 42.8776L8.60614 42.1563L7.91343 41.4351L4.30738 44.8987L5.0001 45.6199ZM13.327 53.5675L14.2968 53.3238L13.3147 49.4142L12.3449 49.6578L11.375 49.9014L12.3571 53.8111L13.327 53.5675ZM12.3449 49.6578L12.0624 50.6171L15.9293 51.7559L16.2118 50.7966L16.4943 49.8373L12.6274 48.6985L12.3449 49.6578ZM16.2118 50.7966L15.2419 51.0402L16.224 54.9499L17.1939 54.7063L18.1638 54.4626L17.1817 50.553L16.2118 50.7966ZM17.1939 54.7063L17.4764 53.747L13.6095 52.6082L13.327 53.5675L13.0445 54.5267L16.9114 55.6655L17.1939 54.7063ZM8.63911 58.0701L9.33183 58.7913L10.7742 57.4059L10.0815 56.6847L9.38881 55.9635L7.94639 57.3489L8.63911 58.0701ZM8.88128 46.0518L8.16007 46.7445L9.54551 48.1869L10.2667 47.4942L10.9879 46.8015L9.60249 45.359L8.88128 46.0518ZM19.2721 56.8699L18.5508 57.5626L19.9363 59.005L20.6575 58.3123L21.3787 57.6196L19.9933 56.1772L19.2721 56.8699ZM17.8678 60.0996L18.2319 61.031C19.3614 60.5895 20.4237 59.9234 21.3502 59.0335L20.6575 58.3123L19.9648 57.5911C19.2309 58.296 18.3929 58.8207 17.5038 59.1682L17.8678 60.0996ZM20.6575 58.3123L21.3502 59.0335C22.2767 58.1436 22.985 57.109 23.4716 55.9982L22.5557 55.5969L21.6397 55.1956C21.2567 56.0701 20.6986 56.8862 19.9648 57.5911L20.6575 58.3123ZM6.85184 55.2805L5.92046 55.6445C6.36194 56.774 7.02798 57.8363 7.9179 58.7629L8.63911 58.0701L9.36032 57.3774C8.65546 56.6436 8.13077 55.8056 7.78322 54.9164L6.85184 55.2805ZM8.63911 58.0701L7.9179 58.7629C8.80782 59.6894 9.84248 60.3977 10.9532 60.8843L11.3545 59.9683L11.7558 59.0524C10.8814 58.6693 10.0652 58.1113 9.36032 57.3774L8.63911 58.0701ZM18.1842 44.3958L17.7829 45.3118C18.6574 45.6949 19.4736 46.2528 20.1784 46.9866L20.8997 46.2939L21.6209 45.6012C20.7309 44.6747 19.6962 43.9664 18.5854 43.4798L18.1842 44.3958ZM20.8997 46.2939L20.1784 46.9866C20.8833 47.7205 21.4079 48.5585 21.7555 49.4477L22.6869 49.0837L23.6182 48.7196C23.1768 47.5902 22.5108 46.5278 21.6209 45.6012L20.8997 46.2939ZM6.8794 49.0145L7.80763 49.3865C8.19116 48.4295 8.77964 47.5359 9.574 46.773L8.88128 46.0518L8.18856 45.3306C7.18537 46.2941 6.43825 47.4271 5.95117 48.6425L6.8794 49.0145ZM8.88128 46.0518L9.574 46.773C10.3684 46.01 11.285 45.4579 12.2566 45.1133L11.9223 44.1708L11.588 43.2283C10.354 43.6661 9.19174 44.367 8.18856 45.3306L8.88128 46.0518Z" fill="#333333"/>
</g>
<g filter="url(#filter11_d_36_182)">
<path fill-rule="evenodd" clip-rule="evenodd" d="M96.1729 10.9167C101.466 10.9167 105.756 15.2073 105.756 20.5C105.756 25.7927 101.466 30.0833 96.1729 30.0833C90.8801 30.0833 86.5895 25.7927 86.5895 20.5C86.5895 15.2073 90.8801 10.9167 96.1729 10.9167ZM107.673 20.5C107.673 14.1487 102.524 9 96.1729 9C89.8216 9 84.6729 14.1487 84.6729 20.5C84.6729 26.8513 89.8216 32 96.1729 32C102.524 32 107.673 26.8513 107.673 20.5Z" fill="#D9D9D9"/>
<path fill-rule="evenodd" clip-rule="evenodd" d="M98.4809 30.7885C98.5736 30.6688 98.5736 29.6029 98.4809 27.5907C99.4736 27.625 100.101 27.5561 100.363 27.384C100.755 27.1259 101.148 26.3299 101.497 25.7689C101.846 25.2079 102.619 25.1192 102.932 24.9938C103.244 24.8683 103.323 24.3571 102.071 24.7437C100.819 25.1304 100.758 26.1833 100.363 26.4294C99.9676 26.6756 99.0232 26.5679 98.5951 26.3707C98.167 26.1735 98.1986 25.4392 98.1222 25.1483C98.0257 24.8767 98.3659 24.8165 98.3733 24.8143C98.7913 24.8143 100.987 24.3368 101.59 22.2109C102.193 20.085 101.416 18.6955 101.001 18.0982C100.725 17.6999 100.75 16.8512 101.075 15.552C99.8943 15.4011 98.9833 15.7727 98.3418 16.6667C98.3412 16.6718 97.5009 16.167 96.1727 16.167C94.8446 16.167 94.3734 16.5782 94.0098 16.6667C93.6462 16.7552 93.3554 15.1018 91.1096 15.552C91.5785 16.4735 91.9711 17.625 91.6714 18.0982C91.3717 18.5713 90.1955 20.0758 90.918 22.2109C91.3997 23.6344 92.3466 24.5021 93.7586 24.8143C93.9205 24.8659 94.0015 24.9493 94.0015 25.0643C94.0015 25.2369 93.7826 25.2557 93.4672 26.0639C93.257 26.6028 93.2418 28.1418 93.4217 30.6809C93.8774 30.7969 94.2318 30.8747 94.4852 30.9145C94.9343 30.9851 95.422 31.0247 95.9012 31.04C96.3804 31.0553 96.5468 31.0535 97.2093 30.9919C97.6509 30.9508 98.0748 30.883 98.4809 30.7885Z" fill="#D9D9D9"/>
<path d="M96.1729 9.5C90.0977 9.5 85.1729 14.4249 85.1729 20.5C85.1729 25.4515 88.4448 29.638 92.9443 31.0176L92.9229 30.7158C92.9061 30.4787 92.8924 30.2498 92.8789 30.0293C88.9281 28.6639 86.0898 24.915 86.0898 20.5C86.0898 14.9311 90.604 10.417 96.1729 10.417C101.742 10.417 106.256 14.9311 106.256 20.5C106.256 25.0696 103.216 28.9261 99.0479 30.1641C99.0451 30.3184 99.0398 30.4513 99.0312 30.5605C99.0248 30.6432 99.0158 30.7237 99.002 30.7949C98.995 30.8305 98.9854 30.8727 98.9707 30.916C98.958 30.9534 98.9306 31.0242 98.876 31.0947L98.8115 31.1787C103.612 29.9965 107.173 25.6653 107.173 20.5C107.173 14.4249 102.248 9.5 96.1729 9.5ZM91.8535 15.9736C91.978 16.272 92.0879 16.577 92.1631 16.8682C92.2286 17.1222 92.2738 17.3819 92.2764 17.625C92.2789 17.8614 92.2413 18.1322 92.0938 18.3652V18.3662C91.773 18.8723 90.7563 20.1735 91.3916 22.0508C91.8198 23.3162 92.6332 24.0535 93.8662 24.3262L93.8887 24.3311L93.9102 24.3379C94.0358 24.378 94.1816 24.4457 94.2998 24.5674C94.3972 24.6678 94.462 24.7908 94.4883 24.9258L94.502 25.0645L94.4912 25.1855C94.4708 25.2987 94.4237 25.3874 94.3799 25.4541C94.3477 25.503 94.2705 25.6019 94.2549 25.623C94.1879 25.7137 94.0748 25.8818 93.9326 26.2461C93.8654 26.419 93.8055 26.8501 93.7979 27.627C93.7933 28.0833 93.8087 28.6338 93.8398 29.2793C94.5844 29.4767 95.3662 29.583 96.1729 29.583C96.8136 29.583 97.4387 29.5159 98.042 29.3896C98.0326 28.9201 98.0144 28.3282 97.9814 27.6133L97.9561 27.0723L98.498 27.0908C98.9742 27.1073 99.3481 27.0979 99.627 27.0684C99.5712 27.0676 99.5157 27.0688 99.4609 27.0654C99.0825 27.0422 98.6733 26.9577 98.3857 26.8252C97.9419 26.6207 97.7991 26.1697 97.7393 25.9043C97.7059 25.7562 97.6862 25.6094 97.6719 25.498C97.6554 25.3695 97.6474 25.3089 97.6387 25.2754L97.6406 25.2744C97.5938 25.1177 97.5916 24.949 97.6592 24.7881C97.7278 24.6248 97.8439 24.5224 97.9316 24.4639C98.0883 24.3595 98.2917 24.3172 98.2314 24.335L98.3008 24.3145H98.373C98.483 24.3145 99.0525 24.2237 99.665 23.875C100.259 23.5366 100.852 22.9795 101.108 22.0742C101.656 20.1431 100.955 18.9084 100.591 18.3828C100.361 18.0514 100.299 17.6081 100.312 17.1484C100.322 16.8199 100.373 16.4434 100.458 16.0215C100.173 16.0336 99.92 16.0891 99.6953 16.1807C99.3371 16.3268 99.0206 16.5782 98.748 16.958L98.7363 16.9482C98.7091 16.9918 98.681 17.0314 98.6553 17.0566C98.592 17.0999 98.4733 17.1489 98.4219 17.1602C98.33 17.175 98.2567 17.1602 98.2422 17.1572C98.1978 17.1482 98.1643 17.1343 98.1582 17.1318C98.1387 17.1241 98.1229 17.1166 98.1201 17.1152C98.111 17.1108 98.1021 17.1058 98.0996 17.1045C98.09 17.0994 98.0842 17.097 98.0723 17.0908C98.0513 17.08 98.0197 17.0637 97.9775 17.0439C97.8928 17.0043 97.7641 16.9485 97.5967 16.8926C97.2615 16.7807 96.7732 16.667 96.1729 16.667C94.8997 16.667 94.7147 17.0095 94.1279 17.1523C93.8723 17.2145 93.6729 17.1015 93.5703 17.0234C93.4729 16.9493 93.3906 16.8523 93.3359 16.7871C93.2067 16.6328 93.0984 16.4912 92.9375 16.3516C92.7285 16.1703 92.4095 15.9771 91.8535 15.9736Z" stroke="black"/>
</g>
<g filter="url(#filter12_d_36_182)">
<path d="M162.728 62.0545C162.698 61.5031 163.12 61.0311 163.671 61.0005L169.662 60.667L172.325 63.5234L180.812 63.051C181.363 63.0203 181.835 63.4424 181.866 63.9939L182.588 76.9738C182.619 77.5252 182.197 77.9971 181.645 78.0278L164.672 78.9726C164.12 79.0033 163.648 78.5812 163.618 78.0298L162.728 62.0545Z" fill="#D9D9D9"/>
<path d="M174.6 68.4045L177.235 70.7617L174.878 73.3968" fill="#D9D9D9"/>
<path d="M170.606 68.6268L168.249 71.2619L170.884 73.6191" fill="#D9D9D9"/>
<path d="M174.6 68.4045L177.235 70.7617L174.878 73.3968M170.606 68.6268L168.249 71.2619L170.884 73.6191M162.728 62.0545C162.698 61.5031 163.12 61.0311 163.671 61.0005L169.662 60.667L172.325 63.5234L180.812 63.051C181.363 63.0203 181.835 63.4424 181.866 63.9939L182.588 76.9738C182.619 77.5252 182.197 77.9971 181.645 78.0278L164.672 78.9726C164.12 79.0033 163.648 78.5812 163.618 78.0298L162.728 62.0545Z" stroke="#333333" stroke-width="2" stroke-linecap="round" stroke-linejoin="round"/>
</g>
<circle cx="254.673" cy="78" r="3" fill="#D9D9D9" stroke="black" stroke-width="2"/>
<circle cx="265.673" cy="78" r="3" fill="#D9D9D9" stroke="black" stroke-width="2"/>
<circle cx="276.673" cy="78" r="3" fill="#D9D9D9" stroke="black" stroke-width="2"/>
<circle cx="287.673" cy="78" r="3" fill="#D9D9D9" stroke="black" stroke-width="2"/>
<defs>
<filter id="filter0_d_36_182" x="207.673" y="49" width="36" height="42.5" filterUnits="userSpaceOnUse" color-interpolation-filters="sRGB">
<feFlood flood-opacity="0" result="BackgroundImageFix"/>
<feColorMatrix in="SourceAlpha" type="matrix" values="0 0 0 0 0 0 0 0 0 0 0 0 0 0 0 0 0 0 127 0" result="hardAlpha"/>
<feOffset dy="4"/>
<feGaussianBlur stdDeviation="2"/>
<feComposite in2="hardAlpha" operator="out"/>
<feColorMatrix type="matrix" values="0 0 0 0 0 0 0 0 0 0 0 0 0 0 0 0 0 0 0.25 0"/>
<feBlend mode="normal" in2="BackgroundImageFix" result="effect1_dropShadow_36_182"/>
<feBlend mode="normal" in="SourceGraphic" in2="effect1_dropShadow_36_182" result="shape"/>
</filter>
<filter id="filter1_d_36_182" x="136.673" y="51" width="36" height="42.5" filterUnits="userSpaceOnUse" color-interpolation-filters="sRGB">
<feFlood flood-opacity="0" result="BackgroundImageFix"/>
<feColorMatrix in="SourceAlpha" type="matrix" values="0 0 0 0 0 0 0 0 0 0 0 0 0 0 0 0 0 0 127 0" result="hardAlpha"/>
<feOffset dy="4"/>
<feGaussianBlur stdDeviation="2"/>
<feComposite in2="hardAlpha" operator="out"/>
<feColorMatrix type="matrix" values="0 0 0 0 0 0 0 0 0 0 0 0 0 0 0 0 0 0 0.25 0"/>
<feBlend mode="normal" in2="BackgroundImageFix" result="effect1_dropShadow_36_182"/>
<feBlend mode="normal" in="SourceGraphic" in2="effect1_dropShadow_36_182" result="shape"/>
</filter>
<filter id="filter2_d_36_182" x="78.6729" y="51" width="36" height="42.5" filterUnits="userSpaceOnUse" color-interpolation-filters="sRGB">
<feFlood flood-opacity="0" result="BackgroundImageFix"/>
<feColorMatrix in="SourceAlpha" type="matrix" values="0 0 0 0 0 0 0 0 0 0 0 0 0 0 0 0 0 0 127 0" result="hardAlpha"/>
<feOffset dy="4"/>
<feGaussianBlur stdDeviation="2"/>
<feComposite in2="hardAlpha" operator="out"/>
<feColorMatrix type="matrix" values="0 0 0 0 0 0 0 0 0 0 0 0 0 0 0 0 0 0 0.25 0"/>
<feBlend mode="normal" in2="BackgroundImageFix" result="effect1_dropShadow_36_182"/>
<feBlend mode="normal" in="SourceGraphic" in2="effect1_dropShadow_36_182" result="shape"/>
</filter>
<filter id="filter3_d_36_182" x="10.6729" y="30" width="54" height="64" filterUnits="userSpaceOnUse" color-interpolation-filters="sRGB">
<feFlood flood-opacity="0" result="BackgroundImageFix"/>
<feColorMatrix in="SourceAlpha" type="matrix" values="0 0 0 0 0 0 0 0 0 0 0 0 0 0 0 0 0 0 127 0" result="hardAlpha"/>
<feOffset dy="4"/>
<feGaussianBlur stdDeviation="2"/>
<feComposite in2="hardAlpha" operator="out"/>
<feColorMatrix type="matrix" values="0 0 0 0 0 0 0 0 0 0 0 0 0 0 0 0 0 0 0.25 0"/>
<feBlend mode="normal" in2="BackgroundImageFix" result="effect1_dropShadow_36_182"/>
<feBlend mode="normal" in="SourceGraphic" in2="effect1_dropShadow_36_182" result="shape"/>
</filter>
<filter id="filter4_d_36_182" x="192.673" y="17" width="54" height="54" filterUnits="userSpaceOnUse" color-interpolation-filters="sRGB">
<feFlood flood-opacity="0" result="BackgroundImageFix"/>
<feColorMatrix in="SourceAlpha" type="matrix" values="0 0 0 0 0 0 0 0 0 0 0 0 0 0 0 0 0 0 127 0" result="hardAlpha"/>
<feOffset dy="4"/>
<feGaussianBlur stdDeviation="2"/>
<feComposite in2="hardAlpha" operator="out"/>
<feColorMatrix type="matrix" values="0 0 0 0 0 0 0 0 0 0 0 0 0 0 0 0 0 0 0.25 0"/>
<feBlend mode="normal" in2="BackgroundImageFix" result="effect1_dropShadow_36_182"/>
<feBlend mode="normal" in="SourceGraphic" in2="effect1_dropShadow_36_182" result="shape"/>
</filter>
<filter id="filter5_d_36_182" x="185.546" y="50.4451" width="33.1011" height="23.2473" filterUnits="userSpaceOnUse" color-interpolation-filters="sRGB">
<feFlood flood-opacity="0" result="BackgroundImageFix"/>
<feColorMatrix in="SourceAlpha" type="matrix" values="0 0 0 0 0 0 0 0 0 0 0 0 0 0 0 0 0 0 127 0" result="hardAlpha"/>
<feOffset dy="4"/>
<feGaussianBlur stdDeviation="2"/>
<feComposite in2="hardAlpha" operator="out"/>
<feColorMatrix type="matrix" values="0 0 0 0 0 0 0 0 0 0 0 0 0 0 0 0 0 0 0.25 0"/>
<feBlend mode="normal" in2="BackgroundImageFix" result="effect1_dropShadow_36_182"/>
<feBlend mode="normal" in="SourceGraphic" in2="effect1_dropShadow_36_182" result="shape"/>
</filter>
<filter id="filter6_d_36_182" x="145.673" y="36" width="17" height="15" filterUnits="userSpaceOnUse" color-interpolation-filters="sRGB">
<feFlood flood-opacity="0" result="BackgroundImageFix"/>
<feColorMatrix in="SourceAlpha" type="matrix" values="0 0 0 0 0 0 0 0 0 0 0 0 0 0 0 0 0 0 127 0" result="hardAlpha"/>
<feOffset dy="4"/>
<feGaussianBlur stdDeviation="2"/>
<feComposite in2="hardAlpha" operator="out"/>
<feColorMatrix type="matrix" values="0 0 0 0 0 0 0 0 0 0 0 0 0 0 0 0 0 0 0.25 0"/>
<feBlend mode="normal" in2="BackgroundImageFix" result="effect1_dropShadow_36_182"/>
<feBlend mode="normal" in="SourceGraphic" in2="effect1_dropShadow_36_182" result="shape"/>
</filter>
<filter id="filter7_d_36_182" x="71.6729" y="31" width="50" height="34" filterUnits="userSpaceOnUse" color-interpolation-filters="sRGB">
<feFlood flood-opacity="0" result="BackgroundImageFix"/>
<feColorMatrix in="SourceAlpha" type="matrix" values="0 0 0 0 0 0 0 0 0 0 0 0 0 0 0 0 0 0 127 0" result="hardAlpha"/>
<feOffset dy="4"/>
<feGaussianBlur stdDeviation="2"/>
<feComposite in2="hardAlpha" operator="out"/>
<feColorMatrix type="matrix" values="0 0 0 0 0 0 0 0 0 0 0 0 0 0 0 0 0 0 0.25 0"/>
<feBlend mode="normal" in2="BackgroundImageFix" result="effect1_dropShadow_36_182"/>
<feBlend mode="normal" in="SourceGraphic" in2="effect1_dropShadow_36_182" result="shape"/>
</filter>
<filter id="filter8_d_36_182" x="129.673" y="18.9999" width="50" height="50.0001" filterUnits="userSpaceOnUse" color-interpolation-filters="sRGB">
<feFlood flood-opacity="0" result="BackgroundImageFix"/>
<feColorMatrix in="SourceAlpha" type="matrix" values="0 0 0 0 0 0 0 0 0 0 0 0 0 0 0 0 0 0 127 0" result="hardAlpha"/>
<feOffset dy="4"/>
<feGaussianBlur stdDeviation="2"/>
<feComposite in2="hardAlpha" operator="out"/>
<feColorMatrix type="matrix" values="0 0 0 0 0 0 0 0 0 0 0 0 0 0 0 0 0 0 0.25 0"/>
<feBlend mode="normal" in2="BackgroundImageFix" result="effect1_dropShadow_36_182"/>
<feBlend mode="normal" in="SourceGraphic" in2="effect1_dropShadow_36_182" result="shape"/>
</filter>
<filter id="filter9_d_36_182" x="19.6729" y="0" width="36" height="53" filterUnits="userSpaceOnUse" color-interpolation-filters="sRGB">
<feFlood flood-opacity="0" result="BackgroundImageFix"/>
<feColorMatrix in="SourceAlpha" type="matrix" values="0 0 0 0 0 0 0 0 0 0 0 0 0 0 0 0 0 0 127 0" result="hardAlpha"/>
<feOffset dy="4"/>
<feGaussianBlur stdDeviation="2"/>
<feComposite in2="hardAlpha" operator="out"/>
<feColorMatrix type="matrix" values="0 0 0 0 0 0 0 0 0 0 0 0 0 0 0 0 0 0 0.25 0"/>
<feBlend mode="normal" in2="BackgroundImageFix" result="effect1_dropShadow_36_182"/>
<feBlend mode="normal" in="SourceGraphic" in2="effect1_dropShadow_36_182" result="shape"/>
</filter>
<filter id="filter10_d_36_182" x="0" y="41.1564" width="28.2695" height="28.5256" filterUnits="userSpaceOnUse" color-interpolation-filters="sRGB">
<feFlood flood-opacity="0" result="BackgroundImageFix"/>
<feColorMatrix in="SourceAlpha" type="matrix" values="0 0 0 0 0 0 0 0 0 0 0 0 0 0 0 0 0 0 127 0" result="hardAlpha"/>
<feOffset dy="4"/>
<feGaussianBlur stdDeviation="2"/>
<feComposite in2="hardAlpha" operator="out"/>
<feColorMatrix type="matrix" values="0 0 0 0 0 0 0 0 0 0 0 0 0 0 0 0 0 0 0.25 0"/>
<feBlend mode="normal" in2="BackgroundImageFix" result="effect1_dropShadow_36_182"/>
<feBlend mode="normal" in="SourceGraphic" in2="effect1_dropShadow_36_182" result="shape"/>
</filter>
<filter id="filter11_d_36_182" x="80.6729" y="9" width="31" height="31" filterUnits="userSpaceOnUse" color-interpolation-filters="sRGB">
<feFlood flood-opacity="0" result="BackgroundImageFix"/>
<feColorMatrix in="SourceAlpha" type="matrix" values="0 0 0 0 0 0 0 0 0 0 0 0 0 0 0 0 0 0 127 0" result="hardAlpha"/>
<feOffset dy="4"/>
<feGaussianBlur stdDeviation="2"/>
<feComposite in2="hardAlpha" operator="out"/>
<feColorMatrix type="matrix" values="0 0 0 0 0 0 0 0 0 0 0 0 0 0 0 0 0 0 0.25 0"/>
<feBlend mode="normal" in2="BackgroundImageFix" result="effect1_dropShadow_36_182"/>
<feBlend mode="normal" in="SourceGraphic" in2="effect1_dropShadow_36_182" result="shape"/>
</filter>
<filter id="filter12_d_36_182" x="157.727" y="59.667" width="29.8628" height="28.3073" filterUnits="userSpaceOnUse" color-interpolation-filters="sRGB">
<feFlood flood-opacity="0" result="BackgroundImageFix"/>
<feColorMatrix in="SourceAlpha" type="matrix" values="0 0 0 0 0 0 0 0 0 0 0 0 0 0 0 0 0 0 127 0" result="hardAlpha"/>
<feOffset dy="4"/>
<feGaussianBlur stdDeviation="2"/>
<feComposite in2="hardAlpha" operator="out"/>
<feColorMatrix type="matrix" values="0 0 0 0 0 0 0 0 0 0 0 0 0 0 0 0 0 0 0.25 0"/>
<feBlend mode="normal" in2="BackgroundImageFix" result="effect1_dropShadow_36_182"/>
<feBlend mode="normal" in="SourceGraphic" in2="effect1_dropShadow_36_182" result="shape"/>
</filter>
</defs>
</svg>
